<mxfile host="app.diagrams.net" modified="2023-03-16T16:13:55.463Z" agent="5.0 (Windows NT 10.0; Win64; x64) AppleWebKit/537.36 (KHTML, like Gecko) Chrome/111.0.0.0 Safari/537.36" etag="PEVsSg-KhKJlRNi5fqRI" version="21.0.6" type="github">
  <diagram id="prtHgNgQTEPvFCAcTncT" name="Page-1">
    <mxGraphModel dx="1194" dy="776" grid="1" gridSize="10" guides="1" tooltips="1" connect="1" arrows="1" fold="1" page="1" pageScale="1" pageWidth="827" pageHeight="1169" math="0" shadow="0">
      <root>
        <mxCell id="0" />
        <mxCell id="1" parent="0" />
        <mxCell id="dNxyNK7c78bLwvsdeMH5-19" value="Hemonorte&lt;br&gt;" style="swimlane;html=1;childLayout=stackLayout;resizeParent=1;resizeParentMax=0;horizontal=0;startSize=20;horizontalStack=0;fillColor=#dae8fc;strokeColor=#6c8ebf;" parent="1" vertex="1">
          <mxGeometry x="70" y="80" width="620" height="880" as="geometry">
            <mxRectangle x="110" y="130" width="40" height="90" as="alternateBounds" />
          </mxGeometry>
        </mxCell>
        <mxCell id="dNxyNK7c78bLwvsdeMH5-20" value="Recepção&lt;br&gt;" style="swimlane;html=1;startSize=20;horizontal=0;" parent="dNxyNK7c78bLwvsdeMH5-19" vertex="1">
          <mxGeometry x="20" width="600" height="180" as="geometry">
            <mxRectangle x="20" width="600" height="30" as="alternateBounds" />
          </mxGeometry>
        </mxCell>
        <mxCell id="dNxyNK7c78bLwvsdeMH5-25" value="" style="edgeStyle=orthogonalEdgeStyle;rounded=0;orthogonalLoop=1;jettySize=auto;html=1;" parent="dNxyNK7c78bLwvsdeMH5-20" source="dNxyNK7c78bLwvsdeMH5-23" target="dNxyNK7c78bLwvsdeMH5-24" edge="1">
          <mxGeometry relative="1" as="geometry" />
        </mxCell>
        <mxCell id="dNxyNK7c78bLwvsdeMH5-23" value="" style="ellipse;whiteSpace=wrap;html=1;" parent="dNxyNK7c78bLwvsdeMH5-20" vertex="1">
          <mxGeometry x="40" y="25" width="40" height="40" as="geometry" />
        </mxCell>
        <mxCell id="sYDaU1cfyJEAM276iTn--119" style="edgeStyle=orthogonalEdgeStyle;rounded=0;orthogonalLoop=1;jettySize=auto;html=1;exitX=0.5;exitY=1;exitDx=0;exitDy=0;entryX=0.5;entryY=0;entryDx=0;entryDy=0;" edge="1" parent="dNxyNK7c78bLwvsdeMH5-20" source="dNxyNK7c78bLwvsdeMH5-24" target="sYDaU1cfyJEAM276iTn--107">
          <mxGeometry relative="1" as="geometry" />
        </mxCell>
        <mxCell id="dNxyNK7c78bLwvsdeMH5-24" value="Acolhimento" style="rounded=0;whiteSpace=wrap;html=1;fontFamily=Helvetica;fontSize=12;fontColor=#000000;align=center;" parent="dNxyNK7c78bLwvsdeMH5-20" vertex="1">
          <mxGeometry x="180" y="15" width="80" height="60" as="geometry" />
        </mxCell>
        <mxCell id="sYDaU1cfyJEAM276iTn--5" value="Doador cadastrado" style="rounded=0;whiteSpace=wrap;html=1;fontFamily=Helvetica;fontSize=12;fontColor=#000000;align=center;" vertex="1" parent="dNxyNK7c78bLwvsdeMH5-20">
          <mxGeometry x="300" y="100" width="80" height="60" as="geometry" />
        </mxCell>
        <mxCell id="sYDaU1cfyJEAM276iTn--120" style="edgeStyle=orthogonalEdgeStyle;rounded=0;orthogonalLoop=1;jettySize=auto;html=1;exitX=0;exitY=0.5;exitDx=0;exitDy=0;entryX=1;entryY=0.5;entryDx=0;entryDy=0;" edge="1" parent="dNxyNK7c78bLwvsdeMH5-20" source="sYDaU1cfyJEAM276iTn--107" target="sYDaU1cfyJEAM276iTn--116">
          <mxGeometry relative="1" as="geometry" />
        </mxCell>
        <mxCell id="sYDaU1cfyJEAM276iTn--121" style="edgeStyle=orthogonalEdgeStyle;rounded=0;orthogonalLoop=1;jettySize=auto;html=1;exitX=1;exitY=0.5;exitDx=0;exitDy=0;entryX=0;entryY=0.5;entryDx=0;entryDy=0;" edge="1" parent="dNxyNK7c78bLwvsdeMH5-20" source="sYDaU1cfyJEAM276iTn--107" target="sYDaU1cfyJEAM276iTn--5">
          <mxGeometry relative="1" as="geometry" />
        </mxCell>
        <mxCell id="sYDaU1cfyJEAM276iTn--107" value="" style="rhombus;whiteSpace=wrap;html=1;fontFamily=Helvetica;fontSize=12;fontColor=#000000;align=center;" vertex="1" parent="dNxyNK7c78bLwvsdeMH5-20">
          <mxGeometry x="200" y="110" width="40" height="40" as="geometry" />
        </mxCell>
        <mxCell id="sYDaU1cfyJEAM276iTn--116" value="Doador 1 vez" style="rounded=0;whiteSpace=wrap;html=1;fontFamily=Helvetica;fontSize=12;fontColor=#000000;align=center;" vertex="1" parent="dNxyNK7c78bLwvsdeMH5-20">
          <mxGeometry x="80" y="100" width="80" height="60" as="geometry" />
        </mxCell>
        <mxCell id="dNxyNK7c78bLwvsdeMH5-21" value="Serviço social" style="swimlane;html=1;startSize=20;horizontal=0;" parent="dNxyNK7c78bLwvsdeMH5-19" vertex="1">
          <mxGeometry x="20" y="180" width="600" height="160" as="geometry" />
        </mxCell>
        <mxCell id="dNxyNK7c78bLwvsdeMH5-26" value="Serviço social" style="rounded=0;whiteSpace=wrap;html=1;fontFamily=Helvetica;fontSize=12;fontColor=#000000;align=center;" parent="dNxyNK7c78bLwvsdeMH5-21" vertex="1">
          <mxGeometry x="180" y="50" width="80" height="60" as="geometry" />
        </mxCell>
        <mxCell id="dNxyNK7c78bLwvsdeMH5-22" value="Triagem" style="swimlane;html=1;startSize=20;horizontal=0;" parent="dNxyNK7c78bLwvsdeMH5-19" vertex="1">
          <mxGeometry x="20" y="340" width="600" height="180" as="geometry" />
        </mxCell>
        <mxCell id="sYDaU1cfyJEAM276iTn--25" style="edgeStyle=orthogonalEdgeStyle;rounded=0;orthogonalLoop=1;jettySize=auto;html=1;exitX=1;exitY=0.5;exitDx=0;exitDy=0;entryX=0;entryY=0.5;entryDx=0;entryDy=0;" edge="1" parent="dNxyNK7c78bLwvsdeMH5-22" source="sYDaU1cfyJEAM276iTn--22" target="sYDaU1cfyJEAM276iTn--24">
          <mxGeometry relative="1" as="geometry" />
        </mxCell>
        <mxCell id="sYDaU1cfyJEAM276iTn--22" value="Recepção do doador&amp;nbsp;" style="rounded=0;whiteSpace=wrap;html=1;fontFamily=Helvetica;fontSize=12;fontColor=#000000;align=center;" vertex="1" parent="dNxyNK7c78bLwvsdeMH5-22">
          <mxGeometry x="260" y="30" width="80" height="60" as="geometry" />
        </mxCell>
        <mxCell id="sYDaU1cfyJEAM276iTn--27" style="edgeStyle=orthogonalEdgeStyle;rounded=0;orthogonalLoop=1;jettySize=auto;html=1;exitX=1;exitY=0.5;exitDx=0;exitDy=0;entryX=0;entryY=0.5;entryDx=0;entryDy=0;" edge="1" parent="dNxyNK7c78bLwvsdeMH5-22" source="sYDaU1cfyJEAM276iTn--24" target="sYDaU1cfyJEAM276iTn--26">
          <mxGeometry relative="1" as="geometry" />
        </mxCell>
        <mxCell id="sYDaU1cfyJEAM276iTn--24" value="Pré-triagem" style="rounded=0;whiteSpace=wrap;html=1;fontFamily=Helvetica;fontSize=12;fontColor=#000000;align=center;" vertex="1" parent="dNxyNK7c78bLwvsdeMH5-22">
          <mxGeometry x="387" y="30" width="80" height="60" as="geometry" />
        </mxCell>
        <mxCell id="sYDaU1cfyJEAM276iTn--26" value="Triagem" style="rounded=0;whiteSpace=wrap;html=1;fontFamily=Helvetica;fontSize=12;fontColor=#000000;align=center;" vertex="1" parent="dNxyNK7c78bLwvsdeMH5-22">
          <mxGeometry x="507" y="30" width="80" height="60" as="geometry" />
        </mxCell>
        <mxCell id="sYDaU1cfyJEAM276iTn--54" value="Coleta" style="swimlane;html=1;startSize=20;horizontal=0;" vertex="1" parent="dNxyNK7c78bLwvsdeMH5-19">
          <mxGeometry x="20" y="520" width="600" height="180" as="geometry" />
        </mxCell>
        <mxCell id="sYDaU1cfyJEAM276iTn--97" style="edgeStyle=orthogonalEdgeStyle;rounded=0;orthogonalLoop=1;jettySize=auto;html=1;exitX=1;exitY=0.5;exitDx=0;exitDy=0;entryX=0;entryY=0.5;entryDx=0;entryDy=0;" edge="1" parent="sYDaU1cfyJEAM276iTn--54" source="sYDaU1cfyJEAM276iTn--61" target="sYDaU1cfyJEAM276iTn--96">
          <mxGeometry relative="1" as="geometry" />
        </mxCell>
        <mxCell id="sYDaU1cfyJEAM276iTn--61" value="Coleta" style="rounded=0;whiteSpace=wrap;html=1;fontFamily=Helvetica;fontSize=12;fontColor=#000000;align=center;" vertex="1" parent="sYDaU1cfyJEAM276iTn--54">
          <mxGeometry x="390" y="20" width="80" height="60" as="geometry" />
        </mxCell>
        <mxCell id="sYDaU1cfyJEAM276iTn--96" value="" style="ellipse;whiteSpace=wrap;html=1;" vertex="1" parent="sYDaU1cfyJEAM276iTn--54">
          <mxGeometry x="543" y="30" width="40" height="40" as="geometry" />
        </mxCell>
        <mxCell id="sYDaU1cfyJEAM276iTn--62" style="edgeStyle=orthogonalEdgeStyle;rounded=0;orthogonalLoop=1;jettySize=auto;html=1;exitX=0.5;exitY=1;exitDx=0;exitDy=0;" edge="1" parent="dNxyNK7c78bLwvsdeMH5-19" source="sYDaU1cfyJEAM276iTn--26" target="sYDaU1cfyJEAM276iTn--61">
          <mxGeometry relative="1" as="geometry" />
        </mxCell>
        <mxCell id="sYDaU1cfyJEAM276iTn--86" value="Ouvidoria" style="swimlane;html=1;startSize=20;horizontal=0;" vertex="1" parent="dNxyNK7c78bLwvsdeMH5-19">
          <mxGeometry x="20" y="700" width="600" height="180" as="geometry" />
        </mxCell>
        <mxCell id="sYDaU1cfyJEAM276iTn--99" style="edgeStyle=orthogonalEdgeStyle;rounded=0;orthogonalLoop=1;jettySize=auto;html=1;exitX=1;exitY=0.5;exitDx=0;exitDy=0;entryX=0;entryY=0.5;entryDx=0;entryDy=0;" edge="1" parent="sYDaU1cfyJEAM276iTn--86" source="sYDaU1cfyJEAM276iTn--87" target="sYDaU1cfyJEAM276iTn--98">
          <mxGeometry relative="1" as="geometry" />
        </mxCell>
        <mxCell id="sYDaU1cfyJEAM276iTn--87" value="Ouvidoria" style="rounded=0;whiteSpace=wrap;html=1;fontFamily=Helvetica;fontSize=12;fontColor=#000000;align=center;" vertex="1" parent="sYDaU1cfyJEAM276iTn--86">
          <mxGeometry x="390" y="30" width="80" height="60" as="geometry" />
        </mxCell>
        <mxCell id="sYDaU1cfyJEAM276iTn--98" value="" style="ellipse;whiteSpace=wrap;html=1;" vertex="1" parent="sYDaU1cfyJEAM276iTn--86">
          <mxGeometry x="543" y="40" width="40" height="40" as="geometry" />
        </mxCell>
        <mxCell id="sYDaU1cfyJEAM276iTn--89" style="edgeStyle=orthogonalEdgeStyle;rounded=0;orthogonalLoop=1;jettySize=auto;html=1;exitX=0.5;exitY=1;exitDx=0;exitDy=0;" edge="1" parent="dNxyNK7c78bLwvsdeMH5-19" source="sYDaU1cfyJEAM276iTn--61" target="sYDaU1cfyJEAM276iTn--87">
          <mxGeometry relative="1" as="geometry" />
        </mxCell>
        <mxCell id="sYDaU1cfyJEAM276iTn--109" style="edgeStyle=orthogonalEdgeStyle;rounded=0;orthogonalLoop=1;jettySize=auto;html=1;exitX=0.5;exitY=1;exitDx=0;exitDy=0;entryX=0.5;entryY=0;entryDx=0;entryDy=0;" edge="1" parent="dNxyNK7c78bLwvsdeMH5-19" source="sYDaU1cfyJEAM276iTn--107" target="dNxyNK7c78bLwvsdeMH5-26">
          <mxGeometry relative="1" as="geometry" />
        </mxCell>
        <mxCell id="sYDaU1cfyJEAM276iTn--114" style="edgeStyle=orthogonalEdgeStyle;rounded=0;orthogonalLoop=1;jettySize=auto;html=1;exitX=0.5;exitY=1;exitDx=0;exitDy=0;entryX=0;entryY=0.5;entryDx=0;entryDy=0;" edge="1" parent="dNxyNK7c78bLwvsdeMH5-19" source="dNxyNK7c78bLwvsdeMH5-26" target="sYDaU1cfyJEAM276iTn--22">
          <mxGeometry relative="1" as="geometry" />
        </mxCell>
        <mxCell id="sYDaU1cfyJEAM276iTn--123" style="edgeStyle=orthogonalEdgeStyle;rounded=0;orthogonalLoop=1;jettySize=auto;html=1;exitX=0.5;exitY=1;exitDx=0;exitDy=0;entryX=0;entryY=0.5;entryDx=0;entryDy=0;" edge="1" parent="dNxyNK7c78bLwvsdeMH5-19" source="sYDaU1cfyJEAM276iTn--116" target="dNxyNK7c78bLwvsdeMH5-26">
          <mxGeometry relative="1" as="geometry" />
        </mxCell>
        <mxCell id="sYDaU1cfyJEAM276iTn--124" style="edgeStyle=orthogonalEdgeStyle;rounded=0;orthogonalLoop=1;jettySize=auto;html=1;exitX=0.25;exitY=1;exitDx=0;exitDy=0;entryX=0.75;entryY=0;entryDx=0;entryDy=0;" edge="1" parent="dNxyNK7c78bLwvsdeMH5-19" source="sYDaU1cfyJEAM276iTn--5" target="sYDaU1cfyJEAM276iTn--22">
          <mxGeometry relative="1" as="geometry" />
        </mxCell>
        <mxCell id="sYDaU1cfyJEAM276iTn--88" value="&lt;br&gt;" style="text;html=1;align=center;verticalAlign=middle;resizable=0;points=[];autosize=1;strokeColor=none;fillColor=none;" vertex="1" parent="1">
          <mxGeometry x="260" y="905" width="20" height="30" as="geometry" />
        </mxCell>
      </root>
    </mxGraphModel>
  </diagram>
</mxfile>
